HIERARCHY
ROOT Hips
{
	OFFSET -0.001795 -0.223333 0.028219
	CHANNELS 6 Xposition Yposition Zposition Zrotation Yrotation Xrotation 
	JOINT LeftUpLeg
	{
		OFFSET 0.069520 -0.091406 -0.006815
		CHANNELS 3 Zrotation Yrotation Xrotation
		JOINT LeftLeg
		{
			OFFSET 0.034277 -0.375199 -0.004496
			CHANNELS 3 Zrotation Yrotation Xrotation
			JOINT LeftFoot
			{
				OFFSET -0.013596 -0.397961 -0.043693
				CHANNELS 3 Zrotation Yrotation Xrotation
				JOINT LeftToe
				{
					OFFSET 0.026358 -0.055791 0.119288
					CHANNELS 3 Zrotation Yrotation Xrotation
					End Site
					{
						OFFSET 0.000000 0.000000 0.000000
					}
				}
			}
		}
	}
	JOINT RightUpLeg
	{
		OFFSET -0.067670 -0.090522 -0.004320
		CHANNELS 3 Zrotation Yrotation Xrotation
		JOINT RightLeg
		{
			OFFSET -0.038290 -0.382569 -0.008850
			CHANNELS 3 Zrotation Yrotation Xrotation
			JOINT RightFoot
			{
				OFFSET 0.015774 -0.398415 -0.042312
				CHANNELS 3 Zrotation Yrotation Xrotation
				JOINT RightToe
				{
					OFFSET -0.025372 -0.048144 0.123348
					CHANNELS 3 Zrotation Yrotation Xrotation
					End Site
					{
						OFFSET 0.000000 0.000000 0.000000
					}
				}
			}
		}
	}
	JOINT Spine
	{
		OFFSET -0.002533 0.108963 -0.026696
		CHANNELS 3 Zrotation Yrotation Xrotation
		JOINT Spine1
		{
			OFFSET 0.005487 0.135180 0.001092
			CHANNELS 3 Zrotation Yrotation Xrotation
			JOINT Spine2
			{
				OFFSET 0.001457 0.052922 0.025425
				CHANNELS 3 Zrotation Yrotation Xrotation
				JOINT Neck
				{
					OFFSET -0.002778 0.213870 -0.042857
					CHANNELS 3 Zrotation Yrotation Xrotation
					JOINT Head
					{
						OFFSET 0.005152 0.064970 0.051349
						CHANNELS 3 Zrotation Yrotation Xrotation
						End Site
						{
							OFFSET 0.000000 0.000000 0.000000
						}
					}
				}
				JOINT LeftShoulder
				{
					OFFSET 0.078845 0.121749 -0.034090
					CHANNELS 3 Zrotation Yrotation Xrotation
					JOINT LeftArm
					{
						OFFSET 0.090977 0.030469 -0.008868
						CHANNELS 3 Zrotation Yrotation Xrotation
						JOINT LeftForeArm
						{
							OFFSET 0.259612 -0.012772 -0.027456
							CHANNELS 3 Zrotation Yrotation Xrotation
							JOINT LeftHand
							{
								OFFSET 0.249234 0.008986 -0.001171
								CHANNELS 3 Zrotation Yrotation Xrotation
								End Site
								{
									OFFSET 0.000000 0.000000 0.000000
								}
							}
						}
					}
				}
				JOINT RightShoulder
				{
					OFFSET -0.081759 0.118833 -0.038615
					CHANNELS 3 Zrotation Yrotation Xrotation
					JOINT RightArm
					{
						OFFSET -0.096012 0.032551 -0.009143
						CHANNELS 3 Zrotation Yrotation Xrotation
						JOINT RightForeArm
						{
							OFFSET -0.253742 -0.013329 -0.021401
							CHANNELS 3 Zrotation Yrotation Xrotation
							JOINT RightHand
							{
								OFFSET -0.255298 0.007772 -0.005559
								CHANNELS 3 Zrotation Yrotation Xrotation
								End Site
								{
									OFFSET 0.000000 0.000000 0.000000
								}
							}
						}
					}
				}
			}
		}
	}
}
MOTION
Frames: 17
Frame Time: 0.050000
0.000000 0.448987 0.000000 -5.890722 17.536794 18.300743 30.394985 0.749297 -33.934930 -19.723269 19.255266 110.310205 6.776285 14.856977 13.600692 0.000000 0.000000 0.000000 0.176717 -1.608488 -98.661978 31.341652 -36.098645 95.309228 -8.185505 -11.471955 -45.082745 0.000000 0.000000 0.000000 -2.551344 -9.222809 68.994642 1.296939 -0.031183 -9.930345 -1.410642 0.918160 3.852908 4.697055 -1.896549 -10.941756 0.000000 0.000000 0.000000 -2.678707 -44.158501 17.995780 18.595274 -28.926545 -5.349334 17.765923 1.482087 0.314249 0.000000 0.000000 0.000000 15.503064 34.373610 19.291470 0.290666 35.129874 -2.780440 -48.689581 28.410293 -9.719942 0.000000 0.000000 0.000000 
0.014367 0.445461 0.000813 -7.492267 18.125006 17.331818 32.275271 0.910169 -33.552513 -21.474518 22.926047 111.230476 5.539285 12.238473 7.757402 0.000000 0.000000 0.000000 0.202266 -2.178237 -103.022446 33.298650 -39.093137 97.536330 -7.715246 -19.465155 -34.590518 0.000000 0.000000 0.000000 -1.382945 -10.620819 69.539069 -0.695334 0.621082 -8.950398 0.752869 -0.109867 3.328030 5.648689 -2.530396 -11.289544 0.000000 0.000000 0.000000 -7.880695 -47.723211 22.130717 20.940254 -25.662093 -4.738689 15.904599 4.279548 0.574026 0.000000 0.000000 0.000000 15.269149 31.570046 16.928043 3.622517 39.316358 -2.050208 -46.021685 33.214790 -11.004633 0.000000 0.000000 0.000000 
0.030570 0.441213 0.002915 -8.288017 16.209709 16.351504 35.121751 1.324621 -30.453475 -22.639308 25.735036 109.294982 2.607121 8.056302 11.643175 0.000000 0.000000 0.000000 -3.210029 -4.634790 -104.219785 42.205753 -46.388962 92.086393 -8.984375 -27.652921 -25.641041 0.000000 0.000000 0.000000 -0.561678 -10.534648 70.572851 2.434702 -0.777349 -5.179519 -1.369636 1.050719 -0.439014 5.156901 -2.561022 -8.189602 0.000000 0.000000 0.000000 -5.505020 -46.628014 20.402601 15.079344 -25.058491 -3.796583 16.595379 1.719535 0.324988 0.000000 0.000000 0.000000 20.667305 32.036630 19.067322 2.227178 35.907242 -2.161119 -49.845691 38.227573 -14.414695 0.000000 0.000000 0.000000 
0.045814 0.442701 0.005883 -9.437480 13.465445 16.070633 36.260155 1.445295 -26.356338 -23.789637 27.930281 106.373267 0.080653 4.687478 13.814334 0.000000 0.000000 0.000000 -3.236595 -1.977427 -105.342094 45.422805 -47.955010 89.055133 -12.055649 -38.641992 -20.362619 0.000000 0.000000 0.000000 0.445003 -10.017601 70.576055 2.130638 -0.814735 -2.867383 -1.611699 0.480761 -2.350940 4.691589 -2.603405 -5.883551 0.000000 0.000000 0.000000 -9.752927 -46.382581 22.110876 15.048039 -23.553828 -3.370353 18.544647 0.955556 0.297247 0.000000 0.000000 0.000000 22.894034 29.934820 17.827562 5.869499 35.057380 -1.133824 -53.568623 43.158292 -18.324589 0.000000 0.000000 0.000000 
0.059626 0.446417 0.008218 -9.476727 12.146659 15.763306 33.116036 0.934924 -23.363826 -25.447263 28.261794 102.286205 1.456409 6.858223 13.522937 0.000000 0.000000 0.000000 -3.919214 -1.581360 -105.671865 49.618392 -48.967349 84.160179 -17.891199 -49.612381 -11.582019 0.000000 0.000000 0.000000 1.149203 -10.167732 71.626411 3.539074 -1.396367 -3.209454 -1.825153 -0.543462 -0.875735 4.073236 -2.143387 -6.870771 0.000000 0.000000 0.000000 -10.643367 -46.202518 22.619436 13.823147 -22.593470 -2.963875 18.387359 0.490076 0.224665 0.000000 0.000000 0.000000 23.592370 30.216883 17.635135 7.995410 31.458476 -0.657202 -55.852255 43.970329 -20.014461 0.000000 0.000000 0.000000 
0.070317 0.454602 0.009875 -9.631893 11.558265 16.093679 32.606501 0.700895 -21.583329 -25.466284 27.238617 99.701069 1.440682 6.981030 13.801396 0.000000 0.000000 0.000000 -4.489659 -1.669609 -105.650458 49.676889 -48.006747 82.727442 -21.748679 -52.704118 -4.892548 0.000000 0.000000 0.000000 2.212284 -10.747591 71.859106 4.006040 -1.717577 -1.716343 -2.167677 -0.240797 -0.972453 3.440248 -1.634246 -7.639043 0.000000 0.000000 0.000000 -8.899175 -47.182838 22.458706 13.286700 -23.117162 -3.036733 18.094919 1.344177 0.322184 0.000000 0.000000 0.000000 23.584844 28.820415 16.742165 10.645399 29.609949 -0.194577 -60.907733 44.188026 -22.427632 0.000000 0.000000 0.000000 
0.078229 0.470901 0.010590 -9.503676 11.068759 17.219359 30.206907 0.504409 -21.107541 -25.406167 25.839837 96.826613 2.446511 8.249809 11.991690 0.000000 0.000000 0.000000 -4.290277 -0.849390 -105.736298 44.515843 -44.517188 85.569253 -22.304622 -50.682775 -0.949918 0.000000 0.000000 0.000000 3.083742 -10.967483 70.894187 4.249925 -1.819089 -1.738264 -2.032544 -1.744016 -0.106326 1.968828 -0.764878 -7.576662 0.000000 0.000000 0.000000 -8.672724 -46.443663 22.399835 12.963340 -22.707628 -2.899919 18.652937 2.250805 0.458936 0.000000 0.000000 0.000000 23.367765 29.234839 16.398526 14.061520 28.455660 0.393485 -61.287366 43.639120 -22.461060 0.000000 0.000000 0.000000 
0.084149 0.492239 0.010668 -9.664203 10.156372 18.173623 27.962151 0.362563 -20.384206 -25.989255 25.243042 92.944610 4.711170 11.917132 11.507964 0.000000 0.000000 0.000000 -3.403145 1.207207 -104.432115 39.721340 -40.079450 86.606264 -23.251357 -50.411780 1.537531 0.000000 0.000000 0.000000 3.416123 -10.357099 69.054173 4.638321 -2.118641 -0.175205 -2.320328 -1.165318 -0.781440 2.932239 -1.341811 -7.691503 0.000000 0.000000 0.000000 -6.664181 -47.408175 22.030578 11.101455 -21.461269 -2.538826 19.719861 3.618694 0.680847 0.000000 0.000000 0.000000 24.947098 28.848927 16.814263 15.184761 26.438435 0.420154 -63.269242 42.114453 -22.329805 0.000000 0.000000 0.000000 
0.088991 0.521479 0.010473 -9.141460 10.428857 18.836273 25.088784 0.091742 -20.381322 -26.418796 23.752178 89.726940 6.083995 14.071387 10.725856 0.000000 0.000000 0.000000 -1.353065 3.256744 -101.450920 32.168575 -33.336705 89.473363 -20.630200 -47.400169 -1.480445 0.000000 0.000000 0.000000 3.948798 -10.657988 67.928266 5.562374 -2.506636 -0.495700 -2.986752 -0.401974 -0.953899 3.226291 -1.352349 -8.829004 0.000000 0.000000 0.000000 -6.667300 -47.481000 21.907674 10.388646 -21.109153 -2.470566 20.953858 4.195483 0.819975 0.000000 0.000000 0.000000 23.961145 28.105682 16.508156 18.063862 26.974501 0.883183 -61.664217 41.160944 -20.863937 0.000000 0.000000 0.000000 
0.093487 0.556359 0.010600 -8.736227 10.847870 19.361904 22.320987 -0.302599 -18.824307 -27.199122 21.908738 84.704245 7.212095 15.965398 10.918063 0.000000 0.000000 0.000000 0.864595 5.092159 -97.682581 25.511790 -25.905264 89.791699 -18.335326 -43.535769 -2.990662 0.000000 0.000000 0.000000 4.796489 -10.936497 65.461040 5.785340 -2.570392 -0.821459 -3.213547 0.784725 -0.177294 3.418356 -1.425386 -8.708958 0.000000 0.000000 0.000000 -6.051843 -47.103288 21.134058 8.841514 -22.979045 -2.669952 21.648735 2.644142 0.599071 0.000000 0.000000 0.000000 26.035501 27.752437 17.466936 17.174847 26.204220 0.522677 -60.642943 39.564005 -19.317617 0.000000 0.000000 0.000000 
0.097917 0.598715 0.010360 -7.035478 11.912765 19.251281 19.367887 -0.632696 -17.755568 -27.782635 19.726111 80.758742 7.748707 16.766846 9.431275 0.000000 0.000000 0.000000 2.478696 5.213902 -91.893591 18.996094 -18.296621 88.013656 -15.104135 -37.683595 -5.925307 0.000000 0.000000 0.000000 5.833191 -11.722269 63.438403 6.091580 -2.643223 -1.446603 -4.608345 1.849290 -1.097633 5.494654 -2.817278 -7.438849 0.000000 0.000000 0.000000 -10.812933 -47.380333 22.762763 8.233458 -24.177057 -2.828081 24.398686 -0.472781 0.168346 0.000000 0.000000 0.000000 27.940958 26.595647 17.988597 16.979874 25.823786 0.360333 -58.512813 38.791390 -17.859496 0.000000 0.000000 0.000000 
0.102643 0.642603 0.009408 -5.413311 12.293404 19.124672 16.399179 -0.873145 -14.901227 -28.457314 17.996928 75.930367 10.053690 20.532153 10.431684 0.000000 0.000000 0.000000 2.920257 4.756378 -85.360218 14.910191 -13.322025 82.797987 -12.941285 -33.280335 -9.017707 0.000000 0.000000 0.000000 6.488790 -11.340248 59.481373 6.297033 -2.777143 -1.049438 -5.714857 2.760809 -1.966349 6.940528 -3.844603 -6.447366 0.000000 0.000000 0.000000 -13.232150 -45.464627 21.971603 5.270694 -27.570347 -2.835307 26.592535 -5.067541 -0.690835 0.000000 0.000000 0.000000 30.916415 25.100830 18.485976 16.608483 25.270027 0.161682 -58.313295 38.644765 -17.644080 0.000000 0.000000 0.000000 
0.107400 0.685533 0.006659 -3.561162 12.087593 19.822202 14.029889 -0.949703 -13.641130 -30.364022 18.277912 72.164271 10.954421 22.113489 7.199730 0.000000 0.000000 0.000000 2.942247 4.461509 -80.147527 11.101442 -8.919354 76.549545 -11.351795 -29.055941 -9.612619 0.000000 0.000000 0.000000 7.261781 -10.633973 54.839268 5.986133 -2.449473 -2.742794 -6.636498 3.223367 -1.555467 9.339315 -4.926296 -8.421044 0.000000 0.000000 0.000000 -16.781456 -43.243955 21.375190 0.979986 -31.592573 -2.426232 29.528717 -12.145562 -2.315081 0.000000 0.000000 0.000000 32.139499 23.201200 18.079375 16.948888 24.632559 -0.015344 -56.999703 41.467016 -18.543080 0.000000 0.000000 0.000000 
0.111557 0.727644 0.001935 -1.321794 13.552402 19.983982 11.621441 -1.025222 -11.052105 -32.030904 17.301574 68.622532 15.813266 30.142622 6.050510 0.000000 0.000000 0.000000 2.206712 2.807435 -75.317533 7.848178 -6.026305 70.218699 -10.457286 -25.761323 -6.098915 0.000000 0.000000 0.000000 8.965658 -10.738837 49.662237 5.834967 -2.559499 -1.185068 -7.787048 3.874242 -3.608922 11.012281 -5.411499 -10.079372 0.000000 0.000000 0.000000 -19.517235 -41.207794 20.046478 -3.919863 -34.955017 -1.298371 32.252375 -20.255409 -4.623901 0.000000 0.000000 0.000000 33.069426 20.597630 17.287163 16.561104 26.219036 -0.057696 -58.430954 43.615623 -20.020909 0.000000 0.000000 0.000000 
0.114848 0.761626 -0.004178 -0.115264 14.252124 19.879528 9.754372 -0.991623 -9.519392 -31.796692 16.988345 70.384381 17.385541 32.149163 7.959024 0.000000 0.000000 0.000000 1.786914 2.122610 -71.842680 5.631514 -4.215831 65.011253 -9.775562 -23.284297 -0.637743 0.000000 0.000000 0.000000 10.071297 -10.306776 45.239274 4.875548 -1.975183 -2.668389 -7.230845 4.224107 -3.527810 11.188040 -6.196373 -7.296960 0.000000 0.000000 0.000000 -23.675282 -39.098698 19.274907 -10.005931 -35.697887 0.436526 33.632586 -29.995092 -7.583815 0.000000 0.000000 0.000000 34.334004 19.307163 17.049876 17.270810 25.700313 -0.091300 -60.208273 45.806310 -22.006042 0.000000 0.000000 0.000000 
0.116894 0.788631 -0.010629 1.007126 15.671244 19.197760 8.937496 -0.934163 -7.359937 -30.278296 15.254318 72.222270 18.269026 32.079308 13.471452 0.000000 0.000000 0.000000 0.677196 0.845569 -67.696653 4.841800 -3.873467 59.631965 -9.478373 -22.148652 2.367084 0.000000 0.000000 0.000000 11.005506 -9.675690 40.498167 4.385632 -1.817776 -2.200070 -7.004690 4.092664 -3.781043 9.261644 -5.106192 -6.618471 0.000000 0.000000 0.000000 -24.157418 -36.789496 17.245029 -16.405093 -35.945111 2.278678 33.777711 -37.555102 -10.103979 0.000000 0.000000 0.000000 33.298500 18.959654 16.774089 19.811425 26.711825 0.365558 -62.540254 46.090348 -23.040659 0.000000 0.000000 0.000000 
0.117617 0.804925 -0.017262 1.349296 16.945554 18.008931 9.182942 -0.901911 -4.029984 -27.289888 11.845021 71.250816 16.957854 29.696610 16.345923 0.000000 0.000000 0.000000 0.127052 0.171839 -64.719041 4.502545 -3.869177 56.476239 -9.477248 -21.717147 5.182882 0.000000 0.000000 0.000000 12.264145 -9.074901 35.894731 3.352389 -1.530615 -0.748369 -6.552382 3.572801 -4.525448 9.014776 -4.667699 -7.699196 0.000000 0.000000 0.000000 -23.514202 -34.415867 15.221641 -21.948727 -33.881883 3.531277 34.475765 -43.963395 -12.780056 0.000000 0.000000 0.000000 31.307770 17.748755 15.154739 22.370071 26.432633 0.837945 -66.336576 48.707470 -26.432108 0.000000 0.000000 0.000000 
